<svg width="321" height="298" viewBox="0 0 321 298" fill="none" xmlns="http://www.w3.org/2000/svg">
<g clip-path="url(#clip0)">
<path d="M259.55 129.16C216.84 55.1801 170.78 -1.30989 160.27 0.000109946C149.76 -1.30989 103.7 55.1801 61 129.16C18.3 203.14 -5.37002 267.38 0.999981 275.82C3.35998 281.47 27.68 287.93 64.25 292.38C75.14 293.71 87.12 294.79 99.92 295.75C127.3 297.75 150.67 295.04 166.83 275.24C186.69 250.92 186.73 210.61 164.64 176.82C164.384 176.462 164.015 176.202 163.592 176.082C163.169 175.961 162.718 175.988 162.313 176.158C161.907 176.328 161.571 176.63 161.36 177.016C161.149 177.401 161.075 177.847 161.15 178.28C162.847 191.19 162.51 204.285 160.15 217.09C156.88 235.04 143.75 249.09 125.84 249.09C118.889 249.094 112.099 246.995 106.363 243.068C100.626 239.142 96.2121 233.572 93.7 227.09C88.45 213.46 93.4 197.02 99.35 181.09C115.42 138.09 147.24 100.51 155.28 92.0901C158.38 88.8601 161.94 88.6401 165.28 92.0901C176.16 103.42 230.6 168.22 230.6 227.58C230.6 241.108 226.718 254.352 219.415 265.739C212.112 277.126 201.695 286.178 189.4 291.82C186.59 293.12 187.4 297.39 190.53 297.28C261.62 294.86 315.92 284.37 319.53 275.78C325.91 267.38 302.26 203.12 259.55 129.16Z" fill="url(#paint0_linear)"/>
</g>
<defs>
<linearGradient id="paint0_linear" x1="-1.90933e-05" y1="148.66" x2="320.54" y2="148.66" gradientUnits="userSpaceOnUse">
<stop stop-color="#8DC63F"/>
<stop offset="0.09" stop-color="#6ABA40"/>
<stop offset="0.2" stop-color="#4AAE41"/>
<stop offset="0.31" stop-color="#2FA542"/>
<stop offset="0.44" stop-color="#1A9D43"/>
<stop offset="0.57" stop-color="#0B9844"/>
<stop offset="0.74" stop-color="#039544"/>
<stop offset="1" stop-color="#009444"/>
</linearGradient>
<clipPath id="clip0">
<rect width="320.54" height="297.32" fill="white"/>
</clipPath>
</defs>
</svg>
