<svg width="1881" height="512" viewBox="0 0 1881 512" fill="none" xmlns="http://www.w3.org/2000/svg">
<path d="M531.04 359H498.4V181.64H614.32V212.84H531.04V255.56H604V286.76H531.04V359ZM691.116 362.12C672.876 362.12 658.476 357.08 647.916 347C637.516 336.76 632.316 322.6 632.316 304.52V228.68H663.756V304.52C663.756 313.32 666.156 320.36 670.956 325.64C675.916 330.92 682.636 333.56 691.116 333.56C699.756 333.56 706.476 330.92 711.276 325.64C716.236 320.36 718.716 313.32 718.716 304.52V228.68H750.156V304.52C750.156 322.6 744.876 336.76 734.316 347C723.916 357.08 709.516 362.12 691.116 362.12ZM905.526 291.08C905.526 295.24 905.206 299.88 904.566 305H805.206C807.286 314.28 811.686 321.64 818.406 327.08C825.286 332.36 834.166 335 845.046 335C860.886 335 875.206 330.52 888.006 321.56L900.486 343.88C884.326 355.88 865.446 361.88 843.846 361.88C832.006 361.88 821.446 359.96 812.166 356.12C803.046 352.28 795.686 347.16 790.086 340.76C784.486 334.2 780.246 327 777.366 319.16C774.646 311.16 773.286 302.68 773.286 293.72C773.286 273.88 779.526 257.64 792.006 245C804.646 232.04 820.966 225.56 840.966 225.56C859.686 225.56 875.126 231.48 887.286 243.32C899.446 255 905.526 270.92 905.526 291.08ZM840.966 251.72C831.846 251.72 824.086 254.36 817.686 259.64C811.446 264.92 807.286 272.12 805.206 281.24H874.806C873.526 272.12 869.766 264.92 863.526 259.64C857.446 254.36 849.926 251.72 840.966 251.72ZM960.978 176.6V359H929.777V176.6H960.978ZM1078.26 361.64C1052.34 361.64 1030.66 353.24 1013.22 336.44C995.784 319.48 987.064 297.64 987.064 270.92C987.064 244.04 995.944 221.96 1013.7 204.68C1031.62 187.24 1053.3 178.52 1078.74 178.52C1094.42 178.52 1109.06 181.88 1122.66 188.6C1136.42 195.32 1147.22 204.36 1155.06 215.72L1132.74 237.08C1118.34 219.16 1100.82 210.2 1080.18 210.2C1063.54 210.2 1049.46 215.96 1037.94 227.48C1026.58 239.16 1020.9 253.64 1020.9 270.92C1020.9 288.04 1026.5 302.2 1037.7 313.4C1048.9 324.6 1062.98 330.2 1079.94 330.2C1101.7 330.2 1119.54 321.24 1133.46 303.32L1156.26 323.96C1147.78 335.32 1136.66 344.44 1122.9 351.32C1109.14 358.2 1094.26 361.64 1078.26 361.64ZM1208.24 359H1177.04V176.6H1207.52V245.48C1211.36 239.4 1216.96 234.52 1224.32 230.84C1231.68 227.16 1239.84 225.32 1248.8 225.32C1262.72 225.32 1274.64 230.04 1284.56 239.48C1294.48 248.92 1299.44 262.28 1299.44 279.56V359H1268.24V287.96C1268.24 277.24 1265.68 268.92 1260.56 263C1255.44 256.92 1248.48 253.88 1239.68 253.88C1230.4 253.88 1222.8 257.08 1216.88 263.48C1211.12 269.88 1208.24 278.2 1208.24 288.44V359ZM1429.7 245.24V228.68H1459.46V359H1429.7V342.92C1418.34 355.72 1404.18 362.12 1387.22 362.12C1368.5 362.12 1353.06 355.56 1340.9 342.44C1328.74 329.32 1322.66 312.92 1322.66 293.24C1322.66 273.56 1328.74 257.4 1340.9 244.76C1353.22 231.96 1368.66 225.56 1387.22 225.56C1403.86 225.56 1418.02 232.12 1429.7 245.24ZM1430.42 293.72C1430.42 282.68 1426.82 273.32 1419.62 265.64C1412.42 257.96 1403.22 254.12 1392.02 254.12C1380.82 254.12 1371.62 257.96 1364.42 265.64C1357.38 273.48 1353.86 282.84 1353.86 293.72C1353.86 304.76 1357.38 314.2 1364.42 322.04C1371.62 329.72 1380.82 333.56 1392.02 333.56C1403.22 333.56 1412.42 329.72 1419.62 322.04C1426.82 314.36 1430.42 304.92 1430.42 293.72ZM1522.54 359H1491.34V228.68H1521.34V246.68C1529.34 232.44 1541.42 225.32 1557.58 225.32C1563.02 225.32 1568.22 226.2 1573.18 227.96L1570.54 257.96C1564.94 256.2 1559.9 255.32 1555.42 255.32C1545.34 255.32 1537.34 258.76 1531.42 265.64C1525.5 272.36 1522.54 282.28 1522.54 295.4V359ZM1686.35 244.28V228.68H1715.63V346.04C1715.63 366.84 1708.99 383.4 1695.71 395.72C1682.43 408.04 1665.15 414.2 1643.87 414.2C1621.79 414.2 1602.03 407.96 1584.59 395.48L1597.31 371.72C1611.87 381.96 1627.15 387.08 1643.15 387.08C1656.27 387.08 1666.59 383.56 1674.11 376.52C1681.63 369.64 1685.39 360.52 1685.39 349.16V341.48C1674.83 353.32 1660.99 359.24 1643.87 359.24C1624.83 359.24 1609.23 352.92 1597.07 340.28C1584.91 327.64 1578.83 311.72 1578.83 292.52C1578.83 273 1585.15 257 1597.79 244.52C1610.43 231.88 1626.19 225.56 1645.07 225.56C1661.71 225.56 1675.47 231.8 1686.35 244.28ZM1648.43 331.88C1659.31 331.88 1668.35 328.2 1675.55 320.84C1682.75 313.32 1686.35 303.96 1686.35 292.76C1686.35 281.56 1682.75 272.36 1675.55 265.16C1668.35 257.8 1659.31 254.12 1648.43 254.12C1637.39 254.12 1628.27 257.8 1621.07 265.16C1613.87 272.36 1610.27 281.56 1610.27 292.76C1610.27 303.96 1613.87 313.32 1621.07 320.84C1628.27 328.2 1637.39 331.88 1648.43 331.88ZM1872.56 291.08C1872.56 295.24 1872.24 299.88 1871.6 305H1772.24C1774.32 314.28 1778.72 321.64 1785.44 327.08C1792.32 332.36 1801.2 335 1812.08 335C1827.92 335 1842.24 330.52 1855.04 321.56L1867.52 343.88C1851.36 355.88 1832.48 361.88 1810.88 361.88C1799.04 361.88 1788.48 359.96 1779.2 356.12C1770.08 352.28 1762.72 347.16 1757.12 340.76C1751.52 334.2 1747.28 327 1744.4 319.16C1741.68 311.16 1740.32 302.68 1740.32 293.72C1740.32 273.88 1746.56 257.64 1759.04 245C1771.68 232.04 1788 225.56 1808 225.56C1826.72 225.56 1842.16 231.48 1854.32 243.32C1866.48 255 1872.56 270.92 1872.56 291.08ZM1808 251.72C1798.88 251.72 1791.12 254.36 1784.72 259.64C1778.48 264.92 1774.32 272.12 1772.24 281.24H1841.84C1840.56 272.12 1836.8 264.92 1830.56 259.64C1824.48 254.36 1816.96 251.72 1808 251.72Z" fill="white"/>
<path fill-rule="evenodd" clip-rule="evenodd" d="M181.957 3.83042C189.538 -1.27681 202.174 -1.27681 209.756 3.83042C210.142 4.22101 211.534 5.28372 213.776 6.99569C240.849 27.6689 391.906 143.019 394.24 312.818C391.713 422.623 305.789 512 197.12 512C88.4513 509.446 0 422.623 0 312.818C0 131.511 174.375 8.93765 181.957 3.83042ZM146.976 410.811C148.725 411.658 150.65 412.098 152.6 412.097C154.373 412.099 156.126 411.736 157.747 411.032C159.369 410.329 160.822 409.3 162.014 408.012L300.751 258.158C302.409 256.368 303.502 254.144 303.896 251.756C304.291 249.368 303.97 246.918 302.974 244.706C301.977 242.493 300.348 240.612 298.283 239.292C296.218 237.971 293.807 237.268 291.343 237.268H233.68L249.838 178.061C250.342 176.211 250.407 174.272 250.026 172.393C249.646 170.515 248.83 168.747 247.643 167.228C246.456 165.708 244.928 164.477 243.179 163.63C241.43 162.783 239.506 162.342 237.555 162.341H148.533C145.734 162.341 143.012 163.248 140.791 164.921C138.57 166.595 136.974 168.942 136.25 171.597L102.172 296.475C101.667 298.326 101.603 300.265 101.983 302.143C102.364 304.022 103.179 305.789 104.367 307.309C105.554 308.828 107.081 310.059 108.831 310.906C110.58 311.754 112.504 312.195 114.454 312.195H163.294L140.324 396.378C139.817 398.228 139.751 400.167 140.13 402.046C140.51 403.925 141.324 405.693 142.511 407.213C143.699 408.733 145.226 409.964 146.976 410.811Z" fill="white"/>
</svg>
